<?xml version="1.0" encoding="UTF-8"?>
<!DOCTYPE svg PUBLIC "-//W3C//DTD SVG 1.1//EN" "http://www.w3.org/Graphics/SVG/1.1/DTD/svg11.dtd">
<svg version="1.1" xmlns="http://www.w3.org/2000/svg" xmlns:xlink="http://www.w3.org/1999/xlink" x="0" y="0" width="1500" height="500" viewBox="0, 0, 1500, 500">
  <g id="Layer_1">
    <path d="M256.636,427.355 L256.194,428.121 L255.675,427.821 C256.485,427.479 256.18,427.662 256.636,427.355 z" fill="#FFFFFF"/>
    <path d="M236.427,86.007 C236.247,86.893 236.347,86.293 236.269,87.826 C236.269,95.307 242.33,101.374 249.812,101.374 C257.29,101.374 263.354,95.307 263.354,87.826 C263.28,86.345 263.377,86.893 263.227,86.16 L386.485,157.354 L387.191,157.354 C381.489,159.387 378.145,164.245 377.843,170.222 C377.918,171.711 377.821,171.154 377.975,171.912 L272.961,111.256 L382.677,301.363 L382.677,180.581 C385.013,182.797 388.277,183.613 391.386,183.77 C394.739,183.741 396.829,182.819 399.536,180.991 L399.536,322.704 C397.18,320.801 394.351,320.072 391.384,319.922 L391.384,319.922 C383.902,319.922 377.838,325.989 377.838,333.47 C378.018,339.038 380.326,342.277 384.799,345.297 L384.36,345.297 L263.808,414.928 L263.479,415.498 C263.395,409.869 260.005,405.216 254.902,403.06 L361.419,341.538 L140.009,341.538 L245.87,402.684 C240.111,404.72 236.704,409.557 236.399,415.604 L236.456,416.72 L114.311,346.168 C119.379,343.968 121.978,338.858 122.069,333.53 C121.824,326.052 115.559,320.19 108.085,320.439 L108.085,320.439 C104.887,320.645 101.522,321.74 99.275,324.142 L99.959,322.956 L99.959,181.495 C102.428,183.517 105.326,184.353 108.46,184.512 C112.009,184.466 113.968,183.516 116.818,181.591 L116.818,301.423 L226.644,111.132 L121.971,171.591 L122.003,170.964 C122.003,163.479 115.938,157.416 108.46,157.416 L108.46,157.416 C104.808,157.464 102.884,158.456 99.959,160.431 L99.959,157.354 L112.905,157.354 L236.427,86.007 z M249.766,104.796 L122.863,324.673 L376.666,324.673 L249.766,104.796 z" fill="#FFFFFF"/>
    <path d="M95.421,167.451 C94.898,170.017 95.024,168.855 94.92,170.92 L93.544,168.534 L95.421,167.451 z" fill="#FFFFFF"/>
    <path d="M98.779,324.673 C96.1,327.263 95.062,330.795 95,334.43 C95.245,341.908 101.506,347.77 108.984,347.52 L109.714,347.459 L105.007,355.619 L90.406,347.188 L93.668,341.538 L87.063,341.538 L87.063,324.673 L98.779,324.673 z" fill="#FFFFFF"/>
    <path d="M401.654,324.673 L412.33,324.673 L412.33,341.538 L405.865,341.538 L409.127,347.188 L394.526,355.623 L389.457,346.838 C390.452,347.041 389.815,346.939 391.384,347.018 C398.863,347.018 404.927,340.955 404.927,333.47 C404.811,330.367 403.925,326.945 401.654,324.673 z" fill="#FFFFFF"/>
    <path d="M404.661,167.852 L405.955,168.599 L404.924,170.387 L404.932,170.222 C404.845,168.502 404.954,169.29 404.661,167.852 z" fill="#FFFFFF"/>
    <path d="M395.582,157.354 L399.536,157.354 L399.536,159.453 C397.165,157.851 398.47,158.574 395.582,157.354 z" fill="#FFFFFF"/>
    <path d="M248.427,74.344 C243.163,75.052 239.246,78.183 237.202,83.027 L231.895,73.827 L246.492,65.397 L249.766,71.066 L253.041,65.393 L267.638,73.824 L262.381,82.933 C260.36,77.556 255.397,74.556 249.812,74.274 L248.427,74.344 z" fill="#FFFFFF"/>
    <path d="M217.062,75.033 L216.837,75.645 C216.962,75.242 216.888,75.447 217.062,75.033 z" fill="#FFFFFF"/>
    <path d="M249.455,9.704 L250.655,9.705 C254.228,11.502 252.973,10.367 254.836,12.58 L267.32,32.761 L273.195,33.332 L289.365,15.979 C292.644,12.474 299.264,13.775 300.942,18.291 L309.225,40.462 L314.938,42.194 L334.148,28.366 C338.05,25.556 344.284,28.147 345.056,32.886 L348.862,56.264 L354.11,59.078 L375.656,49.252 C380.039,47.259 385.657,51.011 385.471,55.814 L384.639,79.536 L389.195,83.284 L412.288,77.838 C416.98,76.738 421.74,81.503 420.64,86.197 L415.187,109.302 L418.934,113.849 L442.647,113.024 C447.479,112.839 451.214,118.456 449.203,122.847 L439.384,144.405 L442.193,149.655 L465.558,153.456 C470.307,154.239 472.897,160.469 470.076,164.372 L456.254,183.578 L457.989,189.297 L480.148,197.587 C484.655,199.271 485.974,205.886 482.447,209.176 L465.112,225.345 L465.686,231.226 L485.857,243.715 C489.944,246.242 489.94,253.009 485.853,255.524 L465.683,268.012 L465.108,273.89 L482.443,290.07 C485.97,293.35 484.651,299.961 480.144,301.652 L457.985,309.938 L456.25,315.661 L470.072,334.871 C472.893,338.786 470.311,345.023 465.555,345.783 L442.189,349.584 L439.38,354.841 L449.199,376.392 C451.211,380.776 447.43,386.412 442.643,386.219 L418.93,385.383 L415.195,389.94 L420.632,413.054 C421.736,417.736 416.976,422.494 412.284,421.394 L389.191,415.951 L384.639,419.688 L385.467,443.417 C385.642,448.229 380.035,451.977 375.653,449.976 L354.106,440.149 L348.859,442.967 L345.048,466.33 C344.281,471.081 338.046,473.66 334.144,470.862 L314.942,457.022 L309.222,458.762 L300.934,480.926 C299.256,485.427 292.64,486.754 289.362,483.226 L273.191,465.88 L267.316,466.47 L254.832,486.648 C252.307,490.726 245.547,490.718 243.029,486.649 L230.541,466.47 L224.662,465.88 L208.492,483.225 C205.215,486.754 198.594,485.427 196.916,480.926 L188.628,458.762 L182.908,457.022 L163.713,470.857 C159.812,473.66 153.574,471.088 152.802,466.334 L148.991,442.967 L143.743,440.149 L122.197,449.972 C117.82,451.977 112.201,448.221 112.383,443.418 L113.21,419.688 L108.655,415.951 L85.562,421.393 C80.871,422.494 76.107,417.736 77.207,413.054 L82.647,389.94 L78.9,385.383 L55.195,386.215 C50.417,386.412 46.636,380.776 48.64,376.393 L58.462,354.841 L55.645,349.584 L32.288,345.783 C27.54,345.023 24.958,338.786 27.767,334.871 L41.585,315.661 L39.853,309.938 L17.691,301.652 C13.192,299.961 11.876,293.35 15.392,290.071 L32.727,273.89 L32.152,268.012 L11.982,255.523 C7.899,253.009 7.899,246.242 11.986,243.716 L32.152,231.226 L32.727,225.345 L15.388,209.172 C11.876,205.886 13.192,199.271 17.691,197.588 L39.853,189.297 L41.585,183.578 L27.766,164.372 C24.965,160.469 27.536,154.228 32.285,153.456 L55.645,149.655 L58.462,144.405 L48.636,122.846 C46.648,118.456 50.417,112.888 55.2,113.024 L78.912,113.849 L82.647,109.302 L77.207,86.193 C76.107,81.503 80.871,76.745 85.562,77.838 L108.655,83.284 L113.21,79.536 L112.382,55.814 C112.201,51.011 117.82,47.251 122.198,49.252 L143.743,59.078 L148.991,56.264 L152.802,32.882 C153.574,28.147 159.812,25.549 163.714,28.367 L182.919,42.194 L188.632,40.462 L196.919,18.29 C198.602,13.775 205.218,12.474 208.496,15.984 L224.666,33.332 L230.549,32.761 L243.033,12.579 C244.754,10.079 246.649,9.849 249.455,9.704 L249.455,9.704 z M106.791,128.577 L103.787,128.754 C90.816,129.985 79.189,138.21 72.662,149.275 C63.481,165.488 65.934,187.734 80.197,200.361 C75.355,215.79 73.619,231.888 73.078,247.978 C73.522,266.185 75.582,284.757 81.707,302.023 C66.377,315.329 63.174,336.608 72.764,354.321 L72.764,354.323 C82.961,371.832 105.773,380.382 124.701,371.949 C147.497,395.467 177.646,410.322 208.848,418.985 C210.62,440.59 229.008,456.329 250.22,456.864 C272.564,456.568 289.438,440.191 291.667,418.236 C323.016,410.578 351.204,393.602 374.199,371.187 C394.578,380.145 416.103,372.827 427.661,354.346 L427.662,354.346 L427.669,354.333 L427.676,354.322 L427.676,354.321 C437.52,336.347 433.593,312.772 416.775,300.464 C422.339,283.529 424.596,265.748 424.821,247.978 C424.855,235.463 423.319,223.019 420.783,210.777 C420.163,207.785 419.233,204.866 418.459,201.911 C434.019,188.514 437.531,167.282 427.778,149.275 C418.995,135.808 409.184,130.496 393.509,128.553 L390.621,128.468 C388.612,128.666 386.59,128.766 384.593,129.063 C382.732,129.388 380.835,129.705 379.07,130.408 C355.621,103.96 324.367,86.778 290.611,77.372 C286.68,58.525 268.775,46.092 250.22,45.624 L250.22,45.623 C230.501,45.839 215.695,58.28 209.973,76.722 C174.553,83.963 143.111,103.253 118.926,129.834 C115.991,128.84 112.867,128.651 109.799,128.472 L106.791,128.577 z" fill="#FFFFFF"/>
    <path d="M392.399,304.221 C398.017,304.914 401.215,305.16 406.288,308.126 C420.393,316.274 425.181,334.142 417.035,348.17 L422.349,351.258 L417.021,348.194 C408.979,362.192 391.013,367.004 376.972,358.931 C362.977,350.883 358.168,332.91 366.239,318.864 C371.921,309.534 381.465,304.273 392.399,304.221 z M391.385,319.922 C383.902,319.922 377.838,325.989 377.838,333.47 C377.838,340.955 383.902,347.018 391.385,347.018 C398.863,347.018 404.927,340.955 404.927,333.47 C404.927,325.989 398.863,319.922 391.385,319.922 z" fill="#FFFFFF"/>
    <path d="M109.479,140.76 C115.098,141.454 118.297,141.7 123.37,144.666 C137.422,153.315 141.95,170.163 134.102,184.73 C126.057,198.731 108.091,203.543 94.05,195.471 C80.059,187.423 75.249,169.449 83.318,155.402 C89.001,146.073 98.545,140.812 109.479,140.76 z M108.46,157.416 C100.978,157.416 94.918,163.479 94.918,170.964 C94.918,178.445 100.978,184.512 108.46,184.512 C115.938,184.512 122.003,178.445 122.003,170.964 C122.003,163.479 115.938,157.416 108.46,157.416 z" fill="#FFFFFF"/>
    <path d="M108.029,304.217 C109.902,304.351 111.797,304.307 113.648,304.618 C122.26,306.069 129.821,311.389 134.219,318.888 C142.269,332.902 137.473,350.793 123.444,358.946 C120.272,360.554 119.279,361.225 115.207,362.146 C102.806,364.949 89.767,359.133 83.42,348.195 C81.809,345.034 81.138,344.046 80.216,339.982 C77.396,327.551 83.269,314.512 94.177,308.112 C98.542,305.887 103.044,304.262 108.029,304.217 z M108.085,320.439 C100.61,320.689 94.75,326.953 94.999,334.43 C95.245,341.908 101.506,347.77 108.984,347.52 C116.459,347.275 122.319,341.011 122.069,333.53 C121.824,326.052 115.559,320.19 108.085,320.439 z" fill="#FFFFFF"/>
    <path d="M390.951,140.756 C392.824,140.89 394.718,140.846 396.57,141.158 C405.181,142.608 412.74,147.927 417.137,155.427 C425.19,169.441 420.396,187.332 406.366,195.485 C392.349,203.543 374.384,198.731 366.342,184.731 L361.014,187.794 L366.341,184.729 C358.275,170.695 363.069,152.805 377.099,144.652 C381.464,142.427 385.966,140.801 390.951,140.756 z M391.386,156.674 C383.907,156.674 377.843,162.741 377.843,170.222 C377.843,177.703 383.907,183.77 391.386,183.77 C398.868,183.77 404.932,177.703 404.932,170.222 C404.932,162.741 398.868,156.674 391.386,156.674 z" fill="#FFFFFF"/>
    <path d="M250.22,385.95 C266.425,385.951 279.515,399.049 279.515,415.261 C278.711,431.162 268.828,441.848 253.213,444.416 L250.22,444.568 C234.015,444.568 220.925,431.473 220.925,415.261 C220.925,399.049 234.016,385.951 250.22,385.95 z M249.942,402.056 C242.46,402.056 236.4,408.123 236.399,415.604 C236.4,423.085 242.46,429.152 249.942,429.152 C257.42,429.152 263.485,423.085 263.485,415.604 C263.485,408.123 257.42,402.056 249.942,402.056 z" fill="#FFFFFF"/>
    <path d="M250.22,58.247 C266.426,58.247 279.515,71.342 279.515,87.554 C278.714,103.482 268.873,114.157 253.219,116.713 L250.22,116.864 C234.016,116.865 220.925,103.767 220.925,87.554 C220.925,71.342 234.015,58.247 250.22,58.247 z M249.812,74.274 C242.33,74.274 236.269,80.341 236.269,87.826 C236.269,95.307 242.33,101.374 249.812,101.374 C257.29,101.374 263.354,95.307 263.354,87.826 C263.354,80.341 257.29,74.274 249.812,74.274 z" fill="#FFFFFF"/>
    <g>
      <path d="M685.358,281.898 Q685.358,297.357 681.297,310.064 Q677.236,322.771 669.114,331.941 Q660.992,341.111 649.202,346.22 Q637.412,351.329 621.954,351.329 Q609.116,351.329 597.85,348.185 Q586.584,345.04 577.938,338.491 Q569.292,331.941 564.052,321.854 Q558.812,311.767 558.288,297.881 Q558.288,295.523 559.598,293.82 Q560.908,292.117 563.79,292.117 L569.03,292.117 Q571.65,292.117 573.091,293.689 Q574.532,295.26 574.794,297.618 Q575.58,307.837 579.641,315.042 Q583.702,322.247 590.121,326.832 Q596.54,331.417 604.662,333.513 Q612.784,335.609 621.954,335.609 Q633.482,335.609 642.259,331.678 Q651.036,327.749 656.931,320.544 Q662.826,313.339 665.839,303.383 Q668.852,293.427 668.852,281.637 L668.852,181.029 L572.174,181.029 Q566.41,181.029 566.41,175.265 L566.41,171.073 Q566.41,165.309 572.174,165.309 L679.332,165.309 Q685.358,165.309 685.358,171.335 z" fill="#FFFFFF"/>
      <path d="M727.016,218.232 Q727.016,212.468 732.78,212.468 L737.234,212.468 Q742.998,212.468 742.998,218.232 L742.998,291.33 Q742.998,336.132 782.036,336.132 Q800.9,336.132 812.035,324.342 Q823.17,312.552 823.17,291.33 L823.17,218.232 Q823.17,212.468 828.934,212.468 L833.388,212.468 Q839.152,212.468 839.152,218.232 L839.152,342.944 Q839.152,348.708 833.388,348.708 L828.934,348.708 Q823.17,348.708 823.17,342.944 L823.17,330.63 Q816.096,339.8 806.14,345.564 Q796.184,351.328 779.416,351.328 Q766.054,351.328 756.229,346.874 Q746.404,342.421 739.854,334.56 Q733.304,326.701 730.16,315.958 Q727.016,305.216 727.016,292.641 z" fill="#FFFFFF"/>
      <path d="M995.042,342.944 Q995.042,348.708 989.278,348.708 L984.824,348.708 Q979.06,348.708 979.06,342.944 L979.06,269.846 Q979.06,248.886 968.842,236.965 Q958.624,225.044 938.974,225.044 Q920.11,225.044 908.844,236.834 Q897.578,248.624 897.578,269.846 L897.578,342.944 Q897.578,348.708 891.814,348.708 L887.36,348.708 Q881.596,348.708 881.596,342.944 L881.596,218.232 Q881.596,212.468 887.36,212.468 L891.814,212.468 Q897.578,212.468 897.578,218.232 L897.578,230.546 Q904.652,221.376 914.608,215.612 Q924.564,209.848 941.594,209.848 Q954.956,209.848 964.912,214.302 Q974.868,218.756 981.549,226.616 Q988.23,234.476 991.636,245.218 Q995.042,255.96 995.042,268.536 z" fill="#FFFFFF"/>
      <path d="M1055.04,178.671 Q1055.04,181.29 1053.337,182.863 Q1051.634,184.434 1049.014,184.434 L1039.058,184.434 Q1033.294,184.434 1033.294,178.671 L1033.294,168.715 Q1033.294,166.094 1034.866,164.391 Q1036.438,162.689 1039.058,162.689 L1049.014,162.689 Q1051.634,162.689 1053.337,164.391 Q1055.04,166.094 1055.04,168.715 z M1052.158,342.944 Q1052.158,348.708 1046.394,348.708 L1041.94,348.708 Q1036.176,348.708 1036.176,342.944 L1036.176,218.232 Q1036.176,212.469 1041.94,212.469 L1046.394,212.469 Q1052.158,212.469 1052.158,218.232 z" fill="#FFFFFF"/>
      <path d="M1154.862,351.328 Q1138.356,351.328 1127.876,345.302 Q1117.396,339.276 1110.846,330.63 L1110.846,392.724 Q1110.846,398.488 1105.082,398.488 L1100.628,398.488 Q1094.864,398.488 1094.864,392.724 L1094.864,218.232 Q1094.864,212.469 1100.628,212.469 L1105.082,212.469 Q1110.846,212.469 1110.846,218.232 L1110.846,230.546 Q1117.396,221.639 1127.876,215.743 Q1138.356,209.848 1154.862,209.848 Q1170.058,209.848 1180.669,215.219 Q1191.28,220.59 1197.83,229.368 Q1204.38,238.145 1207.393,249.279 Q1210.406,260.414 1210.93,271.943 Q1211.192,275.872 1211.192,280.589 Q1211.192,285.305 1210.93,289.234 Q1210.406,300.763 1207.393,311.897 Q1204.38,323.033 1197.83,331.81 Q1191.28,340.586 1180.669,345.957 Q1170.058,351.328 1154.862,351.328 z M1110.846,271.156 Q1110.584,275.086 1110.584,281.375 Q1110.584,287.663 1110.846,291.592 Q1111.108,299.453 1113.597,307.444 Q1116.086,315.435 1121.326,321.723 Q1126.566,328.01 1134.426,332.072 Q1142.286,336.133 1153.29,336.133 Q1164.818,336.133 1172.547,332.203 Q1180.276,328.272 1185.123,321.591 Q1189.97,314.91 1192.197,306.134 Q1194.424,297.357 1194.948,287.924 Q1195.21,280.589 1194.948,273.253 Q1194.424,263.82 1192.197,255.174 Q1189.97,246.529 1185.123,239.848 Q1180.276,233.167 1172.547,229.105 Q1164.818,225.044 1153.29,225.044 Q1142.024,225.044 1134.164,229.236 Q1126.304,233.428 1121.195,240.109 Q1116.086,246.79 1113.597,254.913 Q1111.108,263.035 1110.846,271.156 z" fill="#FFFFFF"/>
      <path d="M1240.012,270.108 Q1241.06,256.746 1245.383,245.611 Q1249.706,234.476 1256.911,226.616 Q1264.116,218.756 1274.334,214.302 Q1284.552,209.848 1297.39,209.848 Q1324.9,209.848 1340.096,227.795 Q1355.292,245.742 1355.292,277.444 L1355.292,281.374 Q1355.292,283.994 1353.589,285.566 Q1351.886,287.138 1349.266,287.138 L1255.994,287.138 L1255.994,289.758 Q1256.256,298.666 1259.269,307.05 Q1262.282,315.434 1267.522,321.853 Q1272.762,328.272 1280.36,332.202 Q1287.958,336.132 1297.39,336.132 Q1305.774,336.132 1312.062,334.036 Q1318.35,331.94 1322.804,329.189 Q1327.258,326.438 1330.009,323.556 Q1332.76,320.674 1333.808,319.102 Q1336.166,315.697 1337.476,315.041 Q1338.786,314.386 1341.668,314.386 L1345.86,314.386 Q1348.218,314.386 1349.921,315.827 Q1351.624,317.268 1351.362,319.626 Q1351.1,323.294 1347.301,328.796 Q1343.502,334.298 1336.559,339.276 Q1329.616,344.254 1319.66,347.791 Q1309.704,351.328 1297.39,351.328 Q1284.814,351.328 1274.596,347.005 Q1264.378,342.682 1257.042,334.691 Q1249.706,326.701 1245.383,315.565 Q1241.06,304.43 1240.012,291.068 Q1239.75,287.138 1239.75,280.589 Q1239.75,274.038 1240.012,270.108 z M1255.994,272.466 L1339.31,272.466 L1339.31,271.418 Q1339.31,261.724 1336.428,253.209 Q1333.546,244.694 1328.175,238.406 Q1322.804,232.118 1314.944,228.581 Q1307.084,225.044 1297.39,225.044 Q1287.434,225.044 1279.836,228.581 Q1272.238,232.118 1266.867,238.406 Q1261.496,244.694 1258.745,253.209 Q1255.994,261.724 1255.994,271.418 z" fill="#FFFFFF"/>
      <path d="M1405.858,230.546 Q1415.29,212.468 1441.49,212.468 L1451.184,212.468 Q1456.948,212.468 1456.948,218.232 L1456.948,221.9 Q1456.948,227.664 1451.184,227.664 L1439.918,227.664 Q1424.198,227.664 1415.028,236.834 Q1405.858,246.004 1405.858,261.724 L1405.858,342.944 Q1405.858,345.564 1404.155,347.136 Q1402.452,348.708 1399.832,348.708 L1395.64,348.708 Q1389.876,348.708 1389.876,342.944 L1389.876,218.494 Q1389.876,215.874 1391.448,214.171 Q1393.02,212.468 1395.64,212.468 L1399.832,212.468 Q1402.452,212.468 1404.155,214.171 Q1405.858,215.874 1405.858,218.494 z" fill="#FFFFFF"/>
    </g>
  </g>
</svg>
